# xmcd
#
# Track frame offsets:
#	150
#	17406
#	58511
#	80587
#	98435
#	120601
#	153766
#	168144
#	196630
#	228102
#	249276
#
# Disc length: 3532 seconds
#
# Revision: 1
# Processed by: cddbd v1.5.2PL0 Copyright (c) Steve Scherf et al.
# Submitted via: audiograbber 1.83.01
#
DISCID=680dca0b
DTITLE=Grateful Dead - 71-12-09 Fox Theatre, St Louis MO
DYEAR=1900
DGENRE=
TTITLE0=Stage Banter
TTITLE1=Truckin'
TTITLE2=Brown Eyed Women
TTITLE3=Mr Charlie
TTITLE4=Jack Straw
TTITLE5=Sugaree
TTITLE6=BIODTL
TTITLE7=It Hurts Me Too
TTITLE8=Tennessee Jed
TTITLE9=El Paso
TTITLE10=Run Rudolph Run
EXTD=
EXTT0=
EXTT1=
EXTT2=
EXTT3=
EXTT4=
EXTT5=
EXTT6=
EXTT7=
EXTT8=
EXTT9=
EXTT10=
PLAYORDER=
